<?xml version="1.0" encoding="utf-8"?>
<!-- Generator: Adobe Illustrator 24.2.3, SVG Export Plug-In . SVG Version: 6.00 Build 0)  -->
<svg version="1.1" id="Layer_1" xmlns="http://www.w3.org/2000/svg" xmlns:xlink="http://www.w3.org/1999/xlink" x="0px" y="0px"
	 viewBox="0 0 3710 3710" style="enable-background:new 0 0 3710 3710;" xml:space="preserve">
<style type="text/css">
	.st0{fill:#F4F7FA;}
	.st1{fill:url(#SVGID_1_);}
	.st2{fill:url(#SVGID_2_);}
	.st3{fill:url(#SVGID_3_);}
	.st4{opacity:0.6;fill:#FFFFFF;enable-background:new    ;}
	.st5{fill:url(#SVGID_4_);}
	.st6{fill:url(#SVGID_5_);}
	.st7{fill:url(#SVGID_6_);}
	.st8{fill:url(#SVGID_7_);}
	.st9{fill:url(#SVGID_8_);}
	.st10{fill:url(#SVGID_9_);}
	.st11{fill:url(#SVGID_10_);}
	.st12{fill:url(#SVGID_11_);}
	.st13{fill:url(#SVGID_12_);}
	.st14{fill:url(#SVGID_13_);}
	.st15{fill:url(#SVGID_14_);}
	.st16{opacity:0.3;fill:#FFFFFF;enable-background:new    ;}
	.st17{fill:url(#SVGID_15_);}
	.st18{fill:url(#SVGID_16_);}
	.st19{fill:url(#SVGID_17_);}
	.st20{fill:url(#SVGID_18_);}
	.st21{fill:url(#SVGID_19_);}
	.st22{fill:#26264F;}
	.st23{fill:url(#SVGID_20_);}
	.st24{fill:url(#SVGID_21_);}
	.st25{fill:url(#SVGID_22_);}
	.st26{fill:url(#SVGID_23_);}
	.st27{fill:url(#SVGID_24_);}
	.st28{fill:url(#SVGID_25_);}
	.st29{opacity:0.3;fill:url(#SVGID_26_);enable-background:new    ;}
	.st30{fill:url(#SVGID_27_);}
	.st31{fill:url(#SVGID_28_);}
	.st32{opacity:0.3;fill:url(#SVGID_29_);enable-background:new    ;}
	.st33{fill:#A2A7AE;}
	.st34{fill:#D8DEE8;}
	.st35{opacity:0.3;}
	.st36{fill:#FFFFFF;}
	.st37{fill:url(#SVGID_30_);}
	.st38{fill:url(#SVGID_31_);}
	.st39{fill:url(#SVGID_32_);}
	.st40{fill:url(#SVGID_33_);}
	.st41{fill:url(#SVGID_34_);}
	.st42{opacity:0.3;fill:url(#SVGID_35_);enable-background:new    ;}
	.st43{fill:url(#SVGID_36_);}
	.st44{fill:url(#SVGID_37_);}
	.st45{fill:url(#SVGID_38_);}
	.st46{fill:url(#SVGID_39_);}
	.st47{opacity:0.3;fill:url(#SVGID_40_);enable-background:new    ;}
	.st48{fill:url(#SVGID_41_);}
	.st49{fill:url(#SVGID_42_);}
	.st50{fill:url(#SVGID_43_);}
	.st51{fill:url(#SVGID_44_);}
	.st52{opacity:0.26;fill:url(#SVGID_45_);enable-background:new    ;}
	.st53{opacity:0.26;fill:url(#SVGID_46_);enable-background:new    ;}
	.st54{fill:url(#SVGID_47_);}
	.st55{fill:url(#SVGID_48_);}
	.st56{fill:url(#SVGID_49_);}
	.st57{fill:url(#SVGID_50_);}
	.st58{fill:url(#SVGID_51_);}
	.st59{fill:url(#SVGID_52_);}
	.st60{fill:url(#SVGID_53_);}
	.st61{fill:url(#SVGID_54_);}
	.st62{fill:url(#SVGID_55_);}
	.st63{fill:url(#SVGID_56_);}
	.st64{fill:url(#SVGID_57_);}
	.st65{fill:url(#SVGID_58_);}
	.st66{fill:url(#SVGID_59_);}
</style>
<g id="Illustration">
	<g>
		<path class="st0" d="M2361.4,514.7c-211.6-47.2-431.6-69.8-646.7-55.4C1524.1,472.1,1308,507,1154.5,632
			c-73.1,59.6-160.3,166.6-184.2,261c0,0-125.9,497-377.6,603.4c-251.8,106.5-426.6,1923.9,1482.6,1746.4
			c0,0,1121.4-46.5,1188.9-1386.1c16.3-323.6,7.2-679.4-188.2-950c-149.7-207.4-359.5-299.5-600.6-364.1
			C2437.7,532.6,2399.7,523.3,2361.4,514.7z"/>
		<g>
			
				<linearGradient id="SVGID_1_" gradientUnits="userSpaceOnUse" x1="710.2294" y1="2218.9038" x2="742.8105" y2="2744.8508" gradientTransform="matrix(1 0 0 -1 0 3710)">
				<stop  offset="0" style="stop-color:#AA80F9"/>
				<stop  offset="0.9964" style="stop-color:#6165D7"/>
			</linearGradient>
			<path class="st1" d="M772.8,704.5l-96.3,70.6c-14.7,10.7-23.3,27.8-23.3,46v460.1l179.4-170.5L772.8,704.5z"/>
			<g>
				
					<linearGradient id="SVGID_2_" gradientUnits="userSpaceOnUse" x1="2271.8884" y1="3125.9956" x2="1167.5991" y2="2131.584" gradientTransform="matrix(1 0 0 -1 0 3710)">
					<stop  offset="3.600000e-03" style="stop-color:#E38DDD"/>
					<stop  offset="1" style="stop-color:#9571F6"/>
				</linearGradient>
				<polygon class="st2" points="2820.4,1294.6 719.6,1196.5 719.6,777.3 2820.4,907.1 				"/>
				
					<linearGradient id="SVGID_3_" gradientUnits="userSpaceOnUse" x1="1775.9521" y1="2609.3542" x2="1760.2067" y2="2447.9639" gradientTransform="matrix(1 0 0 -1 0 3710)">
					<stop  offset="0" style="stop-color:#444B8C"/>
					<stop  offset="0.9964" style="stop-color:#26264F"/>
				</linearGradient>
				<path class="st3" d="M2759.3,1159.3l-1968.6-102c-5.7-0.3-10.3,3.7-10.3,9l0,0c0,5.3,4.6,9.7,10.3,10L2759.3,1177
					c4.9,0.3,8.8-3.5,8.8-8.4l0,0C2768.2,1163.7,2764.2,1159.6,2759.3,1159.3z"/>
				<path class="st4" d="M1490.4,1130.6c0,44.3,37.7,82.1,84.2,84.3l469.3,22.3c44.7,2.1,80.8-31.3,80.8-74.6L1490.4,1130.6z"/>
				
					<linearGradient id="SVGID_4_" gradientUnits="userSpaceOnUse" x1="719.6099" y1="2904.2009" x2="2820.3889" y2="2904.2009" gradientTransform="matrix(1 0 0 -1 0 3710)">
					<stop  offset="3.600000e-03" style="stop-color:#E38DDD"/>
					<stop  offset="1" style="stop-color:#9571F6"/>
				</linearGradient>
				<path class="st5" d="M2808.9,875.4l-34.1-41.7L772.8,704.5l-39.7,40.1c-8.7,8.8-13.4,20.4-13.4,32.6l2100.8,129.8
					C2820.4,895.7,2816.3,884.5,2808.9,875.4z"/>
				<g>
					
						<linearGradient id="SVGID_5_" gradientUnits="userSpaceOnUse" x1="905.3765" y1="2793.6519" x2="655.4498" y2="2344.8398" gradientTransform="matrix(1 0 0 -1 0 3710)">
						<stop  offset="0" style="stop-color:#444B8C"/>
						<stop  offset="0.9964" style="stop-color:#26264F"/>
					</linearGradient>
					<path class="st6" d="M1175.4,776.1l-379.7-23.9c-5.1-0.3-9.2,3.3-9.2,8s4.1,8.8,9.2,9.1l379.7,23.6c5,0.3,9-3.2,9-7.9
						C1184.4,780.4,1180.3,776.4,1175.4,776.1z"/>
					
						<linearGradient id="SVGID_6_" gradientUnits="userSpaceOnUse" x1="905.5237" y1="2820.9563" x2="656.0574" y2="2372.9709" gradientTransform="matrix(1 0 0 -1 0 3710)">
						<stop  offset="0" style="stop-color:#444B8C"/>
						<stop  offset="0.9964" style="stop-color:#26264F"/>
					</linearGradient>
					<path class="st7" d="M1175.4,749.2L795.7,725c-5.1-0.3-9.2,3.2-9.2,8s4.1,8.8,9.2,9.1l379.7,24c5,0.3,9-3.2,9-7.9
						C1184.4,753.6,1180.3,749.6,1175.4,749.2z"/>
					
						<linearGradient id="SVGID_7_" gradientUnits="userSpaceOnUse" x1="1326.2435" y1="2771.6589" x2="1083.5861" y2="2335.9009" gradientTransform="matrix(1 0 0 -1 0 3710)">
						<stop  offset="0" style="stop-color:#444B8C"/>
						<stop  offset="0.9964" style="stop-color:#26264F"/>
					</linearGradient>
					<path class="st8" d="M1588.2,802l-368.2-23.1c-4.9-0.3-9,3.2-9,7.9s4,8.7,9,9l368.2,22.9c4.8,0.3,8.7-3.2,8.7-7.8
						C1596.9,806.3,1593,802.3,1588.2,802z"/>
					
						<linearGradient id="SVGID_8_" gradientUnits="userSpaceOnUse" x1="1326.3867" y1="2798.5444" x2="1084.1759" y2="2363.5881" gradientTransform="matrix(1 0 0 -1 0 3710)">
						<stop  offset="0" style="stop-color:#444B8C"/>
						<stop  offset="0.9964" style="stop-color:#26264F"/>
					</linearGradient>
					<path class="st9" d="M1588.2,775.6l-368.2-23.5c-4.9-0.3-9,3.2-9,7.9c0,4.7,4,8.7,9,9l368.2,23.3c4.8,0.3,8.7-3.2,8.7-7.8
						C1596.9,779.9,1593,775.9,1588.2,775.6z"/>
					
						<linearGradient id="SVGID_9_" gradientUnits="userSpaceOnUse" x1="1734.4716" y1="2750.2651" x2="1498.7621" y2="2326.9841" gradientTransform="matrix(1 0 0 -1 0 3710)">
						<stop  offset="0" style="stop-color:#444B8C"/>
						<stop  offset="0.9964" style="stop-color:#26264F"/>
					</linearGradient>
					<path class="st10" d="M1988.7,827.2l-357.3-22.5c-4.8-0.3-8.7,3.2-8.7,7.8c0,4.6,3.9,8.5,8.7,8.8l357.3,22.2
						c4.7,0.3,8.4-3.1,8.4-7.7S1993.4,827.5,1988.7,827.2z"/>
					
						<linearGradient id="SVGID_10_" gradientUnits="userSpaceOnUse" x1="1734.6101" y1="2776.7441" x2="1499.334" y2="2354.2412" gradientTransform="matrix(1 0 0 -1 0 3710)">
						<stop  offset="0" style="stop-color:#444B8C"/>
						<stop  offset="0.9964" style="stop-color:#26264F"/>
					</linearGradient>
					<path class="st11" d="M1988.7,801.1l-357.3-22.8c-4.8-0.3-8.7,3.2-8.7,7.7s3.9,8.5,8.7,8.8l357.3,22.6c4.7,0.3,8.4-3.1,8.4-7.7
						C1997.2,805.4,1993.4,801.4,1988.7,801.1z"/>
					
						<linearGradient id="SVGID_11_" gradientUnits="userSpaceOnUse" x1="2130.6213" y1="2729.447" x2="1901.5579" y2="2318.1006" gradientTransform="matrix(1 0 0 -1 0 3710)">
						<stop  offset="0" style="stop-color:#444B8C"/>
						<stop  offset="0.9964" style="stop-color:#26264F"/>
					</linearGradient>
					<path class="st12" d="M2377.5,851.6l-346.8-21.8c-4.7-0.3-8.4,3.1-8.4,7.6c0,4.5,3.8,8.4,8.4,8.7l346.8,21.6
						c4.5,0.3,8.2-3.1,8.2-7.6C2385.7,855.8,2382,851.9,2377.5,851.6z"/>
					
						<linearGradient id="SVGID_12_" gradientUnits="userSpaceOnUse" x1="2130.7563" y1="2755.531" x2="1902.1128" y2="2344.939" gradientTransform="matrix(1 0 0 -1 0 3710)">
						<stop  offset="0" style="stop-color:#444B8C"/>
						<stop  offset="0.9964" style="stop-color:#26264F"/>
					</linearGradient>
					<path class="st13" d="M2377.5,826l-346.8-22.1c-4.7-0.3-8.4,3.1-8.4,7.6c0,4.5,3.8,8.4,8.4,8.7l346.8,21.9
						c4.5,0.3,8.2-3.1,8.2-7.5C2385.7,830.1,2382,826.3,2377.5,826z"/>
					
						<linearGradient id="SVGID_13_" gradientUnits="userSpaceOnUse" x1="2515.2214" y1="2709.1814" x2="2292.5188" y2="2309.2573" gradientTransform="matrix(1 0 0 -1 0 3710)">
						<stop  offset="0" style="stop-color:#444B8C"/>
						<stop  offset="0.9964" style="stop-color:#26264F"/>
					</linearGradient>
					<path class="st14" d="M2755,875.4l-336.8-21.2c-4.5-0.3-8.2,3.1-8.2,7.5s3.7,8.3,8.2,8.6l336.8,21c4.4,0.3,8-3.1,8-7.5
						C2763,879.4,2759.4,875.6,2755,875.4z"/>
					
						<linearGradient id="SVGID_14_" gradientUnits="userSpaceOnUse" x1="2515.3528" y1="2734.8826" x2="2293.0579" y2="2335.6914" gradientTransform="matrix(1 0 0 -1 0 3710)">
						<stop  offset="0" style="stop-color:#444B8C"/>
						<stop  offset="0.9964" style="stop-color:#26264F"/>
					</linearGradient>
					<path class="st15" d="M2418.2,844.7L2755,866c4.4,0.3,8-3.1,8-7.4c0-4.4-3.6-8.2-8-8.5l-336.8-21.5c-4.5-0.3-8.2,3.1-8.2,7.5
						C2410,840.5,2413.7,844.4,2418.2,844.7z"/>
				</g>
				<path class="st16" d="M2820.4,907.1L1030.2,796.5c7,44.1,23.7,83,53.6,113c135.7,136.3,416-31.5,742.2,45.9
					c142.7,33.9,309.4,118.4,480.8,315.2l513.5,24L2820.4,907.1L2820.4,907.1z"/>
			</g>
			
				<linearGradient id="SVGID_15_" gradientUnits="userSpaceOnUse" x1="1713.9766" y1="2506.8052" x2="1836.9868" y2="2049.3604" gradientTransform="matrix(1 0 0 -1 0 3710)">
				<stop  offset="3.600000e-03" style="stop-color:#E38DDD"/>
				<stop  offset="1" style="stop-color:#9571F6"/>
			</linearGradient>
			<polygon class="st17" points="653.1,1281.2 719.6,1196.5 2820.4,1294.6 2739.8,1364.5 			"/>
		</g>
		<g>
			
				<linearGradient id="SVGID_16_" gradientUnits="userSpaceOnUse" x1="810.8052" y1="2921.3728" x2="554.2975" y2="2600.7385" gradientTransform="matrix(1 0 0 -1 0 3710)">
				<stop  offset="0" style="stop-color:#FFC444"/>
				<stop  offset="0.9964" style="stop-color:#F36F56"/>
			</linearGradient>
			<path class="st18" d="M653.1,1130.6c0,0-39.4-46.8-49.8-122.1c-10.4-75.3,65.9-256.7,179.2-246l-11.7,183.8
				c0,0-113.7-1.2-115.5,40C653.1,1036,653.1,1130.6,653.1,1130.6z"/>
			
				<linearGradient id="SVGID_17_" gradientUnits="userSpaceOnUse" x1="1277.5787" y1="2894.0869" x2="1240.1567" y2="2717.6685" gradientTransform="matrix(1 0 0 -1 0 3710)">
				<stop  offset="0" style="stop-color:#FFC444"/>
				<stop  offset="0.9964" style="stop-color:#F36F56"/>
			</linearGradient>
			<path class="st19" d="M1239.7,848.1c1.3-6.8,6.1-11.7,8.9-14.5c3.2-3.2,3.9-2.7,6-5.4c5.3-6.7,4-13.5,6-13.8
				c1.8-0.2,4.8,4.8,4.6,9.9c-0.2,5.7-4.4,7.4-3.6,10.6c1.1,4.5,11,7.7,19.8,6c10.2-1.9,15.2-10.1,19.1-8.1c2.9,1.5,2.7,6.9,2.7,7.4
				c-0.4,10.1-14,20.8-27.2,22.2c-7.6,0.8-10.5-2-19.5,0.3c-6,1.5-8.1,3.6-11.1,2.4C1240.5,863.2,1238.5,854.6,1239.7,848.1z"/>
			
				<linearGradient id="SVGID_18_" gradientUnits="userSpaceOnUse" x1="901.0616" y1="2930.4783" x2="805.1263" y2="2862.1028" gradientTransform="matrix(1 0 0 -1 0 3710)">
				<stop  offset="0" style="stop-color:#FFC444"/>
				<stop  offset="0.9964" style="stop-color:#F36F56"/>
			</linearGradient>
			<polygon class="st20" points="881.3,769.7 859.1,800.1 880.6,818.1 899,780.3 			"/>
			<g>
				<g>
					
						<linearGradient id="SVGID_19_" gradientUnits="userSpaceOnUse" x1="5394.4575" y1="1173.6815" x2="5298.5249" y2="1105.3076" gradientTransform="matrix(-0.8677 -0.4971 0.4971 -0.8677 5309.5195 5154.5356)">
						<stop  offset="0" style="stop-color:#FFC444"/>
						<stop  offset="0.9964" style="stop-color:#F36F56"/>
					</linearGradient>
					<path class="st21" d="M887.7,786.8c2.2,0,16.5,6.1,22.4-0.1c8.1-8.3,6.1-25.2,6.1-27.8c0-10.6-0.5-12.4-1.9-14.9l-2-3.4
						c0,0-0.1-0.2-0.3-0.3c-1.5-1.7-7.9-5.4-9.3-5.8c-4.7-1.4-18.3,13.2-30.1,37.9c-0.7,0.8-1.3,1.7-2,2.5
						C868.9,777.1,887.3,787.7,887.7,786.8z"/>
					<path class="st22" d="M927.1,747.1c-4.1,3.6-12.9,4.7-16.8,5.2c-0.6,0.1-2.3,0.4-4.3,1.5c-0.3,0.2-0.6,0.4-0.9,0.7
						c-4.2,3.8,0.3,13.4-2.3,14.7c-1.9,1-5.8-3.8-7.2-2.8c-1.2,0.9,1.6,5.8,0.1,6.9c-1.1,0.9-3.1-1.6-5.7-0.8
						c-1.3,0.4-1.4,1.2-3.7,3.4c-1.3,1.2-2.9,2.5-3.9,3.1c-4.9,3-13.1,0.6-13.6-1.9c-0.1-0.7,0.4-0.9,0.9-2.8c0,0,0.5-1.7,0.4-4
						c-0.1-3.3-2.8-7.1-5-11.7c-4.1-8.6-3.7-13.8-3.5-15.5c0-0.2,0-0.4,0.1-0.5c0-0.3,0.1-0.6,0.1-0.9c1.3-5.9,8.3-9,11.9-10.3
						c5.1-1.8,13.2-4.1,23.4-4.5c2.8-0.1,29.7-1,33.5,9.3C932.1,739.7,929.9,744.7,927.1,747.1z"/>
					
						<linearGradient id="SVGID_20_" gradientUnits="userSpaceOnUse" x1="5393.9565" y1="1174.374" x2="5298.0229" y2="1105.9995" gradientTransform="matrix(-0.8677 -0.4971 0.4971 -0.8677 5309.5195 5154.5356)">
						<stop  offset="0" style="stop-color:#FFC444"/>
						<stop  offset="0.9964" style="stop-color:#F36F56"/>
					</linearGradient>
					<path class="st23" d="M901.1,765.9c-0.5-3.5-5-2.9-6.7,0.3c-1.8,3.2-0.5,8.3,2.9,9.3C900.7,776.6,901.7,770.7,901.1,765.9z"/>
				</g>
			</g>
			
				<linearGradient id="SVGID_21_" gradientUnits="userSpaceOnUse" x1="680.9886" y1="2047.3578" x2="665.2904" y2="1940.609" gradientTransform="matrix(1 0 0 -1 0 3710)">
				<stop  offset="0" style="stop-color:#FFC444"/>
				<stop  offset="0.9964" style="stop-color:#F36F56"/>
			</linearGradient>
			<polygon class="st24" points="668.7,1667.4 671.9,1705 685.5,1711 690.7,1671.2 			"/>
			
				<linearGradient id="SVGID_22_" gradientUnits="userSpaceOnUse" x1="664.761" y1="1993.5697" x2="725.5936" y2="1993.5697" gradientTransform="matrix(1 0 0 -1 0 3710)">
				<stop  offset="0" style="stop-color:#311944"/>
				<stop  offset="1" style="stop-color:#893976"/>
			</linearGradient>
			<path class="st25" d="M667.3,1704.6l-2.6,12.7c0,0,0.8,5.5,30.5,12.8c29.7,7.3,34.6-4.4,27.4-6.4c-7.1-2-29.4-12.6-29.4-12.6
				l-18.6-9.9C671.7,1699.5,668,1701.2,667.3,1704.6z"/>
			
				<linearGradient id="SVGID_23_" gradientUnits="userSpaceOnUse" x1="912.4391" y1="2075.9167" x2="888.3684" y2="1931.4919" gradientTransform="matrix(1 0 0 -1 0 3710)">
				<stop  offset="0" style="stop-color:#FFC444"/>
				<stop  offset="0.9964" style="stop-color:#F36F56"/>
			</linearGradient>
			<polygon class="st26" points="902.5,1646 887.8,1683.5 895.7,1693.8 924.8,1658.6 			"/>
			
				<linearGradient id="SVGID_24_" gradientUnits="userSpaceOnUse" x1="876.3979" y1="2004.968" x2="923.6129" y2="2004.968" gradientTransform="matrix(1 0 0 -1 0 3710)">
				<stop  offset="0" style="stop-color:#311944"/>
				<stop  offset="1" style="stop-color:#893976"/>
			</linearGradient>
			<path class="st27" d="M885.3,1680.3l-8.8,9.4c0,0-2.2,5.1,19.2,26.9c21.4,21.9,31.7,14.4,26.7,9c-5-5.4-18.4-26.1-18.4-26.1
				l-10.6-18.2C891.7,1678.3,887.6,1677.8,885.3,1680.3z"/>
			
				<linearGradient id="SVGID_25_" gradientUnits="userSpaceOnUse" x1="546.5065" y1="2356.7297" x2="775.3516" y2="2250.6797" gradientTransform="matrix(1 0 0 -1 0 3710)">
				<stop  offset="0" style="stop-color:#FFC444"/>
				<stop  offset="0.9964" style="stop-color:#F36F56"/>
			</linearGradient>
			<path class="st28" d="M705.1,1200.4c-2.5,22.9-7,57.8-15.7,99.7c-19.5,94.7-40.3,129.9-50,183.9c-8.1,45.6-9.9,113,23.6,202.5
				c10.7,0.9,21.5,1.8,32.2,2.7c2.9-72.4,17-127.1,28.7-162.4c22.6-68.6,61.9-143.4,89-259.5c5.6-24.2,11.2-52.4-4.2-69.1
				C782.1,1169.6,713.4,1197,705.1,1200.4z"/>
			
				<linearGradient id="SVGID_26_" gradientUnits="userSpaceOnUse" x1="547.6601" y1="2359.2188" x2="776.505" y2="2253.1687" gradientTransform="matrix(1 0 0 -1 0 3710)">
				<stop  offset="0" style="stop-color:#FFC444"/>
				<stop  offset="0.9964" style="stop-color:#F36F56"/>
			</linearGradient>
			<path class="st29" d="M808.7,1198.3c-26.6-28.7-95.3-1.3-103.6,2.1c-1.3,12.4-3.3,28.4-6.2,47.1c38.4,51.6,40.9,86.1,34.5,108.9
				c-10,35.2-42.5,46.6-44,87.9c-1,27.6,13.2,34.3,8.4,61.7c-5.2,30.1-23.8,31.1-30.3,59.7c-7.1,31,11.6,44.1,14.7,82.7
				c0.8,10.5,0.5,23.8-3,39.6c5.4,0.5,10.8,0.9,16.2,1.4c2.9-72.4,17-127.1,28.7-162.4c22.6-68.6,61.9-143.4,89-259.5
				C818.5,1243.3,824.1,1215,808.7,1198.3z"/>
			
				<linearGradient id="SVGID_27_" gradientUnits="userSpaceOnUse" x1="974.3737" y1="2481.5662" x2="739.947" y2="2182.9514" gradientTransform="matrix(1 0 0 -1 0 3710)">
				<stop  offset="0" style="stop-color:#FFC444"/>
				<stop  offset="0.9964" style="stop-color:#F36F56"/>
			</linearGradient>
			<path class="st30" d="M721.8,1174.3c2.5,20,8.7,49.7,25.9,80.7c29.8,53.9,65,61.9,105.8,116.7c9.5,12.7,36.9,51.7,50.4,104
				c19.7,76.4,0.1,144.9-15.3,183.6c9.6,5.8,19.3,11.6,28.9,17.4c23.3-29,64.4-89.1,73.9-173.6c19.7-174.6-113-296-128.2-309.4
				C816.2,1187.2,769,1180.7,721.8,1174.3z"/>
			
				<linearGradient id="SVGID_28_" gradientUnits="userSpaceOnUse" x1="1085.2152" y1="2973.6318" x2="649.8502" y2="2429.4255" gradientTransform="matrix(1 0 0 -1 0 3710)">
				<stop  offset="0" style="stop-color:#FFC444"/>
				<stop  offset="0.9964" style="stop-color:#F36F56"/>
			</linearGradient>
			<path class="st31" d="M782.6,762.5c0,0-20.5-0.6-42.1,15.8c-57.6,43.8-70.9,175.6-70.9,175.6c-5.8,57.5-7.9,148.6,20.9,261.2
				c21.8,1.9,59.3,5.3,106.7,10.7c60.1,6.9,79.4,10.4,95.9-2.1c22.2-17,18.7-47.8,23.5-91.2c4.2-37.7,15.6-92.3,49.2-158
				c43.2,44.8,106.1,63.6,164.2,48.3c69.1-18.1,120.1-81.5,124.6-156.9c-6.4-3.8-12.7-7.5-19.1-11.3
				c-21.8,18.3-59.4,44.1-109.6,49.8c-78.9,8.9-150.1-36.5-180-55.5c-43.8-27.9-90.3-51.2-135-77.6
				C807.2,769.1,796.7,762.9,782.6,762.5z"/>
			
				<linearGradient id="SVGID_29_" gradientUnits="userSpaceOnUse" x1="1050.0181" y1="3001.7888" x2="614.6541" y2="2457.5835" gradientTransform="matrix(1 0 0 -1 0 3710)">
				<stop  offset="0" style="stop-color:#FF9085"/>
				<stop  offset="1" style="stop-color:#FB6FBB"/>
			</linearGradient>
			<path class="st32" d="M840.1,1207.8c-5.5-0.7-51-7.4-64.9-38.7c-10.8-24.2,8.7-37.6-1-65.9c-10.5-30.8-38.2-29.5-48.1-58.6
				c-8-23.4,6.8-33.6,11.5-68c8.2-60-29.6-81.3-26.2-132.9c1.1-15.8,6.1-35.8,21.4-58.5c-51.1,49.1-63.3,168.9-63.3,168.9
				c-5.8,57.5-7.9,148.6,20.9,261.2c21.8,1.9,59.3,5.3,106.7,10.7c60.1,6.9,79.4,10.4,95.9-2.1c10.5-8,15.2-19.3,17.8-33.4
				C892.2,1202,867.9,1211.5,840.1,1207.8z"/>
		</g>
		<g>
			<path class="st33" d="M782.8,1696.1l-157.2,57.5c-23.2,8.5-38.6,30.5-38.6,55.2v1067c0,17.7,8,34.4,21.7,45.6l176,143
				L782.8,1696.1z"/>
			<g>
				<path class="st34" d="M2481.1,1734.8L788.4,1695c-7.2-0.2-13.1,5.6-13.1,12.8v1344.5c0,7.3,5.9,12.8,13.1,12.5l1692.7-86
					c6-0.3,10.8-5.9,10.8-12.5V1747C2491.9,1740.4,2487.1,1735,2481.1,1734.8z"/>
				<polygon class="st34" points="1998.5,2910.8 831,2963.8 831,1792.4 1998.5,1813.8 				"/>
				<g class="st35">
					<path class="st36" d="M2420.7,2247.2l-331.3,2.3c-14.4,0.1-26.2,12.8-26.2,28.4v82.4c0,15.6,11.7,28,26.2,27.8l331.3-5
						c13.9-0.2,25.1-12.7,25.1-27.9v-80.6C2445.8,2259.4,2434.6,2247.1,2420.7,2247.2z"/>
					<path class="st36" d="M2420.7,2417.1l-331.3,5.7c-14.4,0.2-26.2,13.1-26.2,28.6v82.4c0,15.6,11.7,27.9,26.2,27.5l331.3-8.4
						c13.9-0.4,25.1-13,25.1-28.2v-80.6C2445.8,2429,2434.6,2416.8,2420.7,2417.1z"/>
					<path class="st36" d="M2420.7,2586.9l-331.3,9c-14.4,0.4-26.2,13.3-26.2,28.9v82.4c0,15.6,11.7,27.8,26.2,27.3l331.3-11.7
						c13.9-0.5,25.1-13.2,25.1-28.4v-80.6C2445.8,2598.6,2434.6,2586.5,2420.7,2586.9z"/>
					<path class="st36" d="M2420.7,2756.8l-331.3,12.4c-14.4,0.5-26.2,13.6-26.2,29.2v82.4c0,15.6,11.7,27.7,26.2,27l331.3-15.1
						c13.9-0.6,25.1-13.5,25.1-28.7v-80.6C2445.8,2768.2,2434.6,2756.2,2420.7,2756.8z"/>
				</g>
				<path class="st33" d="M1883.9,2364.9c0,257.7-198.6,474.7-450,484.9c-258.7,10.5-474-200.9-474-472.4s215.3-488.7,474-485.3
					C1685.3,1895.6,1883.9,2107.2,1883.9,2364.9z"/>
				<g>
					<path class="st34" d="M851.9,1747.5c0,11.5-9.3,20.7-20.8,20.5c-11.5-0.2-20.9-9.8-20.9-21.4c0-11.6,9.4-20.7,20.9-20.5
						C842.5,1726.4,851.9,1736,851.9,1747.5z"/>
					<path class="st34" d="M2455.4,1780.8c0,10.5-7.8,18.9-17.3,18.7c-9.6-0.2-17.4-8.9-17.4-19.4s7.8-18.9,17.4-18.7
						C2447.7,1761.6,2455.4,1770.3,2455.4,1780.8z"/>
				</g>
				<g>
					<path class="st34" d="M851.9,3010.4c0,11.5-9.3,21.4-20.8,21.9c-11.5,0.6-20.9-8.3-20.9-19.9s9.4-21.4,20.9-21.9
						C842.5,2990,851.9,2998.9,851.9,3010.4z"/>
					<path class="st34" d="M2455.4,2933.4c0,10.5-7.8,19.4-17.3,19.9c-9.6,0.5-17.4-7.7-17.4-18.3c0-10.6,7.8-19.5,17.4-19.9
						C2447.7,2914.7,2455.4,2922.9,2455.4,2933.4z"/>
				</g>
				<path class="st36" d="M1589,2080.4c0,88-68.4,316.3-153.6,317.6c-86,1.3-156.3-228.9-156.3-318.5s70.3-161.3,156.3-160.3
					C1520.6,1920.2,1589,1992.4,1589,2080.4z"/>
				<g>
					<path class="st36" d="M1580.4,2681.2c-72-44-224.2-221.7-179.1-298.4c44.8-76.2,266.5-20.5,337.2,24.2
						c70.2,44.4,92,140.7,49.1,215.9C1744.4,2698.5,1651.8,2724.9,1580.4,2681.2z"/>
					<path class="st36" d="M1288,2690.4c73.8-48.9,225.9-233.8,181.4-308.5c-44.7-75-272.6-13.3-347.8,35
						c-75.8,48.7-99.7,150.4-52.9,226.5C1115.2,2719,1213.6,2739.8,1288,2690.4z"/>
				</g>
				<path class="st34" d="M1563,2369.3c0,73.9-57.6,135.1-129.1,136.6c-72.1,1.5-131-58.1-131-133.1s58.9-136.2,131-136.7
					C1505.4,2235.7,1563,2295.3,1563,2369.3z"/>
				<g>
					<polygon class="st34" points="2010.6,1872.7 810.2,1854.8 810.2,1824.6 2010.6,1844.5 					"/>
					<polygon class="st34" points="2010.6,1944.7 810.2,1931.8 810.2,1901.6 2010.6,1916.4 					"/>
					<polygon class="st34" points="2010.6,2016.6 810.2,2008.8 810.2,1978.5 2010.6,1988.3 					"/>
					<polygon class="st34" points="2010.6,2088.5 810.2,2085.7 810.2,2055.5 2010.6,2060.3 					"/>
					<polygon class="st34" points="2010.6,2160.5 810.2,2162.7 810.2,2132.4 2010.6,2132.2 					"/>
					<polygon class="st34" points="2010.6,2232.4 810.2,2239.6 810.2,2209.4 2010.6,2204.1 					"/>
					<polygon class="st34" points="2010.6,2304.3 810.2,2316.6 810.2,2286.3 2010.6,2276 					"/>
					<polygon class="st34" points="2010.6,2376.2 810.2,2393.5 810.2,2363.3 2010.6,2348 					"/>
					<polygon class="st34" points="2010.6,2448.2 810.2,2470.5 810.2,2440.2 2010.6,2419.9 					"/>
					<polygon class="st34" points="2010.6,2520.1 810.2,2547.4 810.2,2517.2 2010.6,2491.8 					"/>
					<polygon class="st34" points="2010.6,2592 810.2,2624.4 810.2,2594.1 2010.6,2563.8 					"/>
					<polygon class="st34" points="2010.6,2664 810.2,2701.3 810.2,2671.1 2010.6,2635.7 					"/>
					<polygon class="st34" points="2010.6,2735.9 810.2,2778.3 810.2,2748 2010.6,2707.6 					"/>
					<polygon class="st34" points="2010.6,2807.8 810.2,2855.2 810.2,2825 2010.6,2779.6 					"/>
					<polygon class="st34" points="2010.6,2879.8 810.2,2932.2 810.2,2901.9 2010.6,2851.5 					"/>
				</g>
				<path class="st16" d="M1578.9,2368.4c-89.2-146.8,17.8-270.2-58.4-435c-47.1-101.7-143.6-176-280-227.8l-452.4-10.7
					c-7.1-0.2-12.9,5.5-12.9,12.6v1345.2c0,6.9,5.7,12.3,12.6,12l1524.9-77.5c-2.8-183.8-54.3-283.6-109.2-342.7
					C2025.8,2453.4,1710.3,2584.6,1578.9,2368.4z"/>
			</g>
		</g>
		<g>
			
				<linearGradient id="SVGID_30_" gradientUnits="userSpaceOnUse" x1="810.4999" y1="1666.4421" x2="895.4468" y2="1666.4421" gradientTransform="matrix(-1 0 0 -1 3703.156 3710)">
				<stop  offset="0" style="stop-color:#40447E"/>
				<stop  offset="0.9964" style="stop-color:#3C3B6B"/>
			</linearGradient>
			<path class="st37" d="M2881.1,2026.3c9.9,9.9,13.9,20.6,10.3,26.9c-2.5,4.3-7.9,5.5-13.9,6.6c-9.5,1.8-19.3,1.3-39.6-4.4
				c-18.9-5.4-30.1-8.5-30.1-13c0-4.3,9.7-7.6,18.3-10.5c12.1-4.1,22.7-5.3,30-5.6C2864.3,2026.3,2872.7,2026.3,2881.1,2026.3z"/>
			
				<linearGradient id="SVGID_31_" gradientUnits="userSpaceOnUse" x1="1104.6115" y1="1812.4835" x2="1160.7745" y2="1812.4835" gradientTransform="matrix(-1 0 0 -1 3703.156 3710)">
				<stop  offset="0" style="stop-color:#40447E"/>
				<stop  offset="0.9964" style="stop-color:#3C3B6B"/>
			</linearGradient>
			<path class="st38" d="M2586.5,1865c4.4,1.9,10.1,5.3,11.6,10.9c2.4,8.8-7,17.9-22.1,32.1c-11.3,10.7-26.6,25.1-31.9,21.4
				c-3.3-2.2-1.3-10.2,0.5-17.7c2.2-9,6.9-22.8,18.7-38C2563.3,1873.8,2563.3,1873.8,2586.5,1865z"/>
			
				<linearGradient id="SVGID_32_" gradientUnits="userSpaceOnUse" x1="851.9678" y1="1670.561" x2="882.7875" y2="1606.7202" gradientTransform="matrix(-1 0 0 -1 3703.156 3710)">
				<stop  offset="0" style="stop-color:#311944"/>
				<stop  offset="1" style="stop-color:#A03976"/>
			</linearGradient>
			<path class="st39" d="M2859.5,2004.4l21.2,23.5c2.2,2.4,1.1,6.3-2,7.2c-4.6,1.3-11.1,2.3-17.1,0.7c-1.3-0.4-2.5-1.2-3.4-2.1
				L2837,2013L2859.5,2004.4z"/>
			
				<linearGradient id="SVGID_33_" gradientUnits="userSpaceOnUse" x1="1148.6445" y1="1923.2712" x2="1101.5137" y2="1713.3252" gradientTransform="matrix(-1 0 0 -1 3703.156 3710)">
				<stop  offset="0" style="stop-color:#311944"/>
				<stop  offset="1" style="stop-color:#A03976"/>
			</linearGradient>
			<path class="st40" d="M2574.8,1850.8l11.4,16.5c1.6,2.3,0.8,5.5-1.6,6.9c-1.6,0.9-3.6,1.9-5.7,2.6c-3.3,1.2-7,0.3-9.4-2.3
				l-12.4-14L2574.8,1850.8z"/>
			
				<linearGradient id="SVGID_34_" gradientUnits="userSpaceOnUse" x1="1136.517" y1="1762.6552" x2="918.7828" y2="1980.3894" gradientTransform="matrix(-1 0 0 -1 3703.156 3710)">
				<stop  offset="0" style="stop-color:#FFC444"/>
				<stop  offset="0.9964" style="stop-color:#F36F56"/>
			</linearGradient>
			<path class="st41" d="M2780.2,1505.5c-10.9,22.7-24,55.5-31.9,96.5c-3.3,17.3-19,104.1,14.6,208.8
				c31.3,97.4,89,159.4,119.6,188.2c-4.3,3.7-10.4,8-18.1,11.6c-12.5,5.8-23.9,7.2-31.1,7.5c-93.7-66.9-139.1-142.6-159.7-183.9
				c-69.6-139.1-52.1-275.7-21.7-333.4c10-19,21.3-29.2,34-33.8C2726.9,1452.4,2774.4,1499.6,2780.2,1505.5z"/>
			
				<linearGradient id="SVGID_35_" gradientUnits="userSpaceOnUse" x1="1136.5183" y1="1762.6565" x2="918.7841" y2="1980.3907" gradientTransform="matrix(-1 0 0 -1 3703.156 3710)">
				<stop  offset="0" style="stop-color:#FFC444"/>
				<stop  offset="0.9964" style="stop-color:#F36F56"/>
			</linearGradient>
			<path class="st42" d="M2651.8,1500.9c10-19,21.3-29.2,34-33.8c41-14.7,88.6,32.6,94.4,38.5c-10.7,22.4-23.6,54.6-31.6,94.8
				c-28.6,6.7-68.7,22.7-88.2,60.5c-31.6,61.1,13.8,134.3,23.2,149.5c20.7,33.4,33.3,30.3,63.9,78.4c23.1,36.3,24.9,52.1,45,69.7
				c23.7,20.6,53.2,26.7,77,28c4.7,4.8,9,9,13,12.6c-4.3,3.7-10.4,8-18.1,11.6c-12.5,5.8-23.9,7.2-31.1,7.5
				c-93.7-66.9-139.1-142.6-159.7-183.9C2603.9,1695.2,2621.4,1558.6,2651.8,1500.9z"/>
			
				<linearGradient id="SVGID_36_" gradientUnits="userSpaceOnUse" x1="1280.703" y1="1906.8409" x2="1062.9688" y2="2124.5752" gradientTransform="matrix(-1 0 0 -1 3703.156 3710)">
				<stop  offset="0" style="stop-color:#FFC444"/>
				<stop  offset="0.9964" style="stop-color:#F36F56"/>
			</linearGradient>
			<path class="st43" d="M2727.2,1500.5c-5,10.2-13.8,25.5-28.3,40.6c-36.8,38.3-71.2,34.7-110.1,66.3c-4.8,3.9-39.3,32.5-52,74.3
				c-24.5,80.4,46.8,159.6,54.6,168.1c-4.6,4.2-11.5,9.7-21,14.3c-8.7,4.2-16.6,6.2-22.5,7.3c-102.2-93.4-152.1-206.5-118.1-280.1
				c18.6-40.1,62.5-69.3,94.9-90.8c53-35.2,103.6-51.2,136.6-59C2683.3,1461.1,2705.3,1480.8,2727.2,1500.5z"/>
			
				<linearGradient id="SVGID_37_" gradientUnits="userSpaceOnUse" x1="995.0368" y1="2588.3035" x2="874.5571" y2="2216.7041" gradientTransform="matrix(-1 0 0 -1 3703.156 3710)">
				<stop  offset="0" style="stop-color:#FFC444"/>
				<stop  offset="0.9964" style="stop-color:#F36F56"/>
			</linearGradient>
			<path class="st44" d="M2666.3,1287.3c-1.5,45.2,8.9,68.6-5.7,105.5c-10.5,26.5-28,44.7-41.3,56c7.5,14.5,25.1,43.4,59.4,66
				c41.4,27.3,82.7,29.1,98.9,29c34.3-17.6,86.3-50.9,128.1-110.1c28.3-40.1,59.4-84.2,51.1-140.4c-10.4-71.4-76.6-109.5-95.3-120.3
				c-12.3-7.1-97.6-56.3-149.7-20.1C2669.9,1181.8,2667.4,1253.5,2666.3,1287.3z"/>
			
				<linearGradient id="SVGID_38_" gradientUnits="userSpaceOnUse" x1="1388.1956" y1="2339.5427" x2="1350.8699" y2="2376.8684" gradientTransform="matrix(-1 0 0 -1 3703.156 3710)">
				<stop  offset="0" style="stop-color:#311944"/>
				<stop  offset="1" style="stop-color:#A03976"/>
			</linearGradient>
			<path class="st45" d="M2381.4,1338.6c-1.4-7.3-6.6-12.6-9.6-15.6c-3.5-3.5-4.2-2.9-6.4-5.8c-5.7-7.2-4.3-14.6-6.5-14.9
				c-1.9-0.2-5.2,5.1-5,10.7c0.3,6.2,4.8,8,3.9,11.5c-1.2,4.8-11.9,8.3-21.4,6.5c-11-2.1-16.4-11-20.7-8.7c-3.1,1.6-2.9,7.5-2.9,8
				c0.5,11,15.1,22.4,29.4,24c8.2,0.9,11.3-2.1,21,0.4c6.5,1.6,8.7,3.9,12,2.5C2380.5,1354.9,2382.7,1345.6,2381.4,1338.6z"/>
			
				<linearGradient id="SVGID_39_" gradientUnits="userSpaceOnUse" x1="1154.1864" y1="2536.7048" x2="1033.7062" y2="2165.1042" gradientTransform="matrix(-1 0 0 -1 3703.156 3710)">
				<stop  offset="0" style="stop-color:#FFC444"/>
				<stop  offset="0.9964" style="stop-color:#F36F56"/>
			</linearGradient>
			<path class="st46" d="M2379.8,1334.7c88,6.1,140.6-16.8,172.3-38.7c71.9-49.7,86-128.7,169.3-150c15.2-3.9,41.7-10.6,56.1,2.9
				c30,28.1-5.4,131.2-67.7,194.5c-13.8,14-63.4,62.9-145.3,74c-105,14.2-180.2-45.1-193.2-55.6c-4.1-4.6-5.4-11.1-3.2-16.8
				C2371.1,1336.9,2379.2,1334.9,2379.8,1334.7z"/>
			
				<linearGradient id="SVGID_40_" gradientUnits="userSpaceOnUse" x1="989.6668" y1="2590.0454" x2="869.1867" y2="2218.4448" gradientTransform="matrix(-1 0 0 -1 3703.156 3710)">
				<stop  offset="0" style="stop-color:#FFC444"/>
				<stop  offset="0.9964" style="stop-color:#F36F56"/>
			</linearGradient>
			<path class="st47" d="M2815.3,1473.1c24.8-23.5,13.1-38,43.5-85.2c31.1-48,53.4-48.9,67.7-81.3c7.4-16.7,12-40.8,3.8-75.4
				c12.6,16.9,22.8,37.4,26.4,61.9c8.2,56.2-22.9,100.3-51.1,140.4c-41.7,59.2-93.8,92.5-128.1,110.1c-16.2,0.1-57.4-1.7-98.9-29
				c-15.4-10.1-27.4-21.5-36.6-32.3c12.7,7,27.5,13.1,44.5,16.7C2694.9,1501,2769.9,1516.1,2815.3,1473.1z"/>
			
				<linearGradient id="SVGID_41_" gradientUnits="userSpaceOnUse" x1="837.5842" y1="2494.5938" x2="934.3552" y2="2654.2661" gradientTransform="matrix(-1 0 0 -1 3703.156 3710)">
				<stop  offset="0" style="stop-color:#311944"/>
				<stop  offset="1" style="stop-color:#A03976"/>
			</linearGradient>
			<path class="st48" d="M2838,1124.1l7.2,24.2c2.3,7.7,6.9,14.6,13.3,19.6l19,14.9c0,0-58-9.7-85.8-36.8l16.9-5.3
				c1.8-0.6,3-2.2,3-4.1v-17.8L2838,1124.1z"/>
			<g>
				<g>
					
						<linearGradient id="SVGID_42_" gradientUnits="userSpaceOnUse" x1="830.7299" y1="2498.749" x2="927.5004" y2="2658.4202" gradientTransform="matrix(-1 0 0 -1 3703.156 3710)">
						<stop  offset="0" style="stop-color:#311944"/>
						<stop  offset="1" style="stop-color:#A03976"/>
					</linearGradient>
					<path class="st49" d="M2817.2,1136.3c-2.8-0.6-22.8,2.7-28.5-7c-7.7-13.1,0-34,0.7-37.2c3.3-13.5,4.5-15.6,7-18.4l3.5-3.7
						c0,0,0.2-0.2,0.5-0.3c2.5-1.7,11.7-4.5,13.7-4.6c6.3-0.3,19.3,22.4,26.7,57.5c0.6,1.3,1.2,2.5,1.8,3.8
						C2844,1129.8,2817.3,1137.6,2817.2,1136.3z"/>
					<path class="st22" d="M2784.9,1063.5c2.9,10.7,11,20.8,14.1,22c0.4,0.1,2.7,1.1,5,3.2c0.3,0.3,0.6,0.6,0.9,1.1
						c4.1,6.1-4.5,16.9-1.6,19.4c2.1,1.8,8.6-3.1,10-1.4c1.3,1.6-3.8,6.9-2.3,8.8c1.1,1.4,4.5-1,7.5,0.8c1.5,0.9,1.4,2,3.7,5.4
						c1.3,1.9,2.9,4,4,5.1c5.4,5.3,16.5,4.8,17.8,1.8c0.4-0.9-0.3-1.3-0.3-3.8c0,0-0.1-2.3,0.8-5.3c1.2-4.2,5.8-8.2,10-13.4
						c7.9-9.7,9-16.4,9.2-18.6c0.1-0.8,0.1-1.4,0.1-1.8c0.4-8.6-2.6-20.2-8.1-26.4c-9.1-10.4-21-1.1-35.2-10
						c-16.3-10.3-13.7-31-21.2-31.2C2791.2,1018.8,2779.5,1043.7,2784.9,1063.5z"/>
					
						<linearGradient id="SVGID_43_" gradientUnits="userSpaceOnUse" x1="832.4831" y1="2497.6865" x2="929.2531" y2="2657.3572" gradientTransform="matrix(-1 0 0 -1 3703.156 3710)">
						<stop  offset="0" style="stop-color:#311944"/>
						<stop  offset="1" style="stop-color:#A03976"/>
					</linearGradient>
					<path class="st50" d="M2806.5,1105.6c1.7-4.3,7.2-2.1,8.5,2.5c1.3,4.7-2,10.7-6.6,11
						C2803.7,1119.4,2804.2,1111.4,2806.5,1105.6z"/>
				</g>
			</g>
		</g>
		<g>
			<path class="st33" d="M2373.6,3099.7c-2.8,0-5-2.3-5-5V2065c0-2.8,2.3-5,5-5c2.8,0,5,2.3,5,5v1029.6
				C2378.6,3097.4,2376.4,3099.7,2373.6,3099.7z"/>
			<path class="st33" d="M2823.4,3078.5c-2.8,0-5-2.3-5-5V2065c0-2.8,2.3-5,5-5s5,2.3,5,5v1008.5
				C2828.4,3076.2,2826.2,3078.5,2823.4,3078.5z"/>
			<path class="st33" d="M2778,3220.3c-2.3,0-4.3-1.6-4.9-3.9L2503,2075.4c-0.6-2.7,1-5.4,3.7-6.1c2.7-0.6,5.4,1,6.1,3.7
				l270.1,1141.1c0.6,2.7-1,5.4-3.7,6.1C2778.8,3220.3,2778.4,3220.3,2778,3220.3z"/>
			<path class="st33" d="M3195.9,3164.2c-2.2,0-4.3-1.5-4.9-3.8l-276.8-1085c-0.7-2.7,0.9-5.4,3.6-6.1c2.7-0.7,5.4,0.9,6.1,3.6
				l276.8,1085c0.7,2.7-0.9,5.4-3.6,6.1C3196.7,3164.2,3196.3,3164.2,3195.9,3164.2z"/>
			<polygon class="st33" points="2935,2075.1 2504.1,2084.4 2366.1,2075.1 2366.1,2054.8 2687.1,2048.3 2935,2054.8 			"/>
			
				<linearGradient id="SVGID_44_" gradientUnits="userSpaceOnUse" x1="655.7625" y1="1640.9441" x2="245.4504" y2="1639.5576" gradientTransform="matrix(1 0 0 -1 2222 3710)">
				<stop  offset="0.494" style="stop-color:#EBEFF2"/>
				<stop  offset="1" style="stop-color:#FFFFFF"/>
			</linearGradient>
			<polygon class="st51" points="2935,2075.1 2504.1,2084.4 2504.1,2064 2935,2054.8 			"/>
			<path class="st33" d="M2566.2,2325.7c-2.7,0-4.9-2.1-5-4.8c-0.2-2.8,2-5.2,4.8-5.3l405.9-22.6c2.7-0.1,5.2,2,5.3,4.8
				c0.2,2.8-2,5.2-4.8,5.3l-405.9,22.6C2566.4,2325.7,2566.3,2325.7,2566.2,2325.7z"/>
			<path class="st33" d="M2619.9,2552.5c-2.6,0-4.8-1.8-5-4.1c-0.2-2.4,1.9-4.5,4.7-4.7l412.8-24.1c2.8-0.1,5.2,1.7,5.4,4.1
				c0.2,2.4-1.9,4.5-4.7,4.7l-412.8,24.1C2620.1,2552.5,2620,2552.5,2619.9,2552.5z"/>
			<path class="st33" d="M2673.3,2778c-2.6,0-4.8-2-5-4.7c-0.2-2.8,1.9-5.2,4.6-5.4l415.7-31.7c2.8-0.2,5.2,1.9,5.4,4.6
				c0.2,2.8-1.9,5.2-4.6,5.4l-415.7,31.7C2673.5,2778,2673.4,2778,2673.3,2778z"/>
			<path class="st33" d="M2726.4,3002.3c-2.6,0-4.8-2-5-4.6c-0.2-2.8,1.8-5.2,4.6-5.5l418.3-37.3c2.8-0.2,5.2,1.8,5.5,4.6
				c0.2,2.8-1.8,5.2-4.6,5.5l-418.3,37.3C2726.7,3002.3,2726.5,3002.3,2726.4,3002.3z"/>
		</g>
		
			<linearGradient id="SVGID_45_" gradientUnits="userSpaceOnUse" x1="2261.0342" y1="2499.532" x2="610.8433" y2="1865.3987" gradientTransform="matrix(1 0 0 -1 0 3710)">
			<stop  offset="3.600000e-03" style="stop-color:#E38DDD"/>
			<stop  offset="1" style="stop-color:#9571F6"/>
		</linearGradient>
		<path class="st52" d="M1688.1,1511.8c-30.7-0.8-59.6-14.9-81-39.9c-12.7-14.8-30-23.4-48.9-24.1c-19.1-0.7-37.4,6.6-51.7,20.7
			c-24.5,24.3-56.7,37.3-90.8,36.4c-34.6-0.9-67-15.9-90.9-42.5c-14.1-15.7-33.6-24.9-55-25.7c-21.5-0.8-42.4,6.9-58.7,21.9
			c-11.9,10.9-30.3,10.3-41.1-1.4c-10.8-11.8-9.8-30.2,2.3-41c28.1-25.3,63.8-38.1,100.4-36.2c36.1,1.8,68.8,17.6,92.5,44.3
			c28.5,32.1,76.4,33.8,106.6,4.5c50.3-48.9,126.7-44.9,170.7,7.1c25.6,30.2,68.2,31.7,94.7,4c44.3-46.3,112.4-42.7,152.2,6.4
			c11.2,13.9,26.3,21.8,42.4,22.4c16,0.6,31-6.1,42.3-18.8c39.2-44,100.3-40.7,136.5,5.7c7.4,9.5,7.3,24.4-0.3,33.3
			c-7.6,9-19.9,8.6-27.4-0.9c-10.4-13.2-24.4-20.8-39.6-21.4c-15.2-0.6-29.8,6-40.9,18.7c-19.1,21.7-44.4,33.5-71.6,32.8
			c-27.5-0.7-53.4-14-72.7-37.6c-23.7-28.9-63.9-30.5-89.7-3C1746.9,1500.2,1718.4,1512.6,1688.1,1511.8z"/>
		
			<linearGradient id="SVGID_46_" gradientUnits="userSpaceOnUse" x1="2278.1021" y1="2290.3284" x2="777.9511" y2="1713.8524" gradientTransform="matrix(1 0 0 -1 0 3710)">
			<stop  offset="3.600000e-03" style="stop-color:#E38DDD"/>
			<stop  offset="1" style="stop-color:#9571F6"/>
		</linearGradient>
		<path class="st53" d="M2143.3,1631.6c-24.9,0-48.4-12.2-66.1-34.3c-10.5-13.1-24.6-20.4-39.8-20.7c-15.3-0.2-30,6.8-41.2,19.9
			c-39.9,46.6-105.3,46.8-145.4-1.3c-11.5-13.8-27.2-21.6-44.2-21.8c-17.1-0.2-33.5,7.2-46.2,21c-21.7,23.7-50.5,36.9-81.1,36.9
			c-31,0-60.1-13.6-81.7-38.4c-12.8-14.7-30.3-22.9-49.4-23.2c-19.2-0.3-37.8,7.6-52.2,22.3c-10.5,10.7-26.9,10.6-36.6-0.3
			c-9.8-10.9-9-28.5,1.6-39.1c24.8-24.7,56.5-37.8,89.2-36.9c32.2,0.8,61.6,15,83.1,39.9c25.8,29.9,68.7,30.4,95.5,1.7
			c44.7-47.9,113.3-46,153.4,2.7c23.3,28.3,61.7,28.7,85.4,1.5c39.5-45.4,101.1-43.6,137.5,2.4c10.3,13,24,20.2,38.6,20.4
			c14.5,0.2,28-6.6,38.2-19.1c35.2-43.1,90.7-41.6,124,2.2c6.8,8.9,6.8,23.3,0,32c-6.9,8.8-18,8.7-24.9-0.2
			c-9.6-12.4-22.4-19.4-36.1-19.6c-13.8-0.2-27,6.5-36.9,18.9C2190.8,1619.8,2167.9,1631.6,2143.3,1631.6z"/>
		<g>
			
				<linearGradient id="SVGID_47_" gradientUnits="userSpaceOnUse" x1="2416.7444" y1="727.5994" x2="2434.3835" y2="410.0906" gradientTransform="matrix(-1 0 0 -1 3829.4229 3710)">
				<stop  offset="0" style="stop-color:#444B8C"/>
				<stop  offset="0.9964" style="stop-color:#26264F"/>
			</linearGradient>
			<path class="st54" d="M1368.5,3095.3c0,0-2.2,17.6-0.7,23.4c1.5,5.9,52.5,10.1,69.8,8.1c17.3-2-10.3-19.7-21.4-23.1
				C1405.2,3100.4,1368.5,3095.3,1368.5,3095.3z"/>
			
				<linearGradient id="SVGID_48_" gradientUnits="userSpaceOnUse" x1="2435.2417" y1="625.7772" x2="2461.6558" y2="625.7772" gradientTransform="matrix(-1 0 0 -1 3829.4229 3710)">
				<stop  offset="0" style="stop-color:#311944"/>
				<stop  offset="1" style="stop-color:#A03976"/>
			</linearGradient>
			<path class="st55" d="M1394.2,3066l-5.4,35.2c0,0-13.7,6.2-20.3,0.1l-0.7-36.9L1394.2,3066z"/>
			
				<linearGradient id="SVGID_49_" gradientUnits="userSpaceOnUse" x1="2736.0066" y1="745.332" x2="2753.6453" y2="427.834" gradientTransform="matrix(-1 0 0 -1 3829.4229 3710)">
				<stop  offset="0" style="stop-color:#444B8C"/>
				<stop  offset="0.9964" style="stop-color:#26264F"/>
			</linearGradient>
			<path class="st56" d="M1106.5,3064.4c0,0,10.8,8,7.9,17.7c-2.9,9.6-28.2,48.2-46.2,59.1c-18,10.9-12.4-11.9-7.1-26.1
				c5.2-14.2,18.6-45.5,23.9-50.7C1090.2,3059.2,1106.5,3064.4,1106.5,3064.4z"/>
			
				<linearGradient id="SVGID_50_" gradientUnits="userSpaceOnUse" x1="2703.4429" y1="642.0638" x2="2755.9727" y2="642.0638" gradientTransform="matrix(-1 0 0 -1 3829.4229 3710)">
				<stop  offset="0" style="stop-color:#311944"/>
				<stop  offset="1" style="stop-color:#A03976"/>
			</linearGradient>
			<path class="st57" d="M1126,3025.8c-5.2,14.6-10.3,26.6-14.2,35.4c-8.7,19.6-13.5,26.9-18.9,33.3c-4.7,5.5-15.8,17.4-18.8,15.4
				c-3-2,5.1-16.4,20.8-58.5c2.3-6.1,9.5-25.6,9.5-25.6l0,0L1126,3025.8L1126,3025.8z"/>
			
				<linearGradient id="SVGID_51_" gradientUnits="userSpaceOnUse" x1="2421.0659" y1="657.5916" x2="2412.2463" y2="998.6094" gradientTransform="matrix(-1 0 0 -1 3829.4229 3710)">
				<stop  offset="0" style="stop-color:#311944"/>
				<stop  offset="1" style="stop-color:#893976"/>
			</linearGradient>
			<path class="st58" d="M1501.1,2416.1c3.7,36.7,7.3,93.6,2,162.7c-7,90-25,147-47.5,242.9c-13.8,58.6-32.4,145-49.2,252.9
				c-3.9,2.2-15.4,8.1-30.2,5.9c-8.3-1.2-14.5-4.5-18.1-6.9c-44.1-134.8-31.1-218.4-9.8-270.5c9.1-22.2,20.1-39.7,26-73.8
				c7.8-45.1-1.8-70.4-15.6-174.9c-9.8-74.5-8.1-86-1.6-97.2C1383,2412.6,1462.6,2413.5,1501.1,2416.1z"/>
			
				<linearGradient id="SVGID_52_" gradientUnits="userSpaceOnUse" x1="2617.1492" y1="662.6621" x2="2608.3296" y2="1003.6802" gradientTransform="matrix(-1 0 0 -1 3829.4229 3710)">
				<stop  offset="0" style="stop-color:#311944"/>
				<stop  offset="1" style="stop-color:#893976"/>
			</linearGradient>
			<path class="st59" d="M1349.2,2431.8c-27,139.6-53.6,212.9-73.6,254.4c-5,10.2-21.5,43.2-37.1,90.5
				c-13.8,41.9-19.6,72.7-22.5,86.2c-9.3,42.8-32.4,105.3-94.3,187.2c-0.8,0.5-11.3,6.4-21.4,1.1c-5.1-2.7-7.7-7-8.7-9
				c8.1-78.4,17.4-144.2,25.5-195c1.7-10.7,9.2-57.3,20.9-118.9c4.6-24.1,11.3-59.4,19.3-95.7c10-45.2,25.3-106.6,49-180.3
				C1253.8,2445.5,1301.5,2438.7,1349.2,2431.8z"/>
			
				<linearGradient id="SVGID_53_" gradientUnits="userSpaceOnUse" x1="2737.5232" y1="1516.288" x2="2614.0515" y2="1691.2063" gradientTransform="matrix(-1 0 0 -1 3829.4229 3710)">
				<stop  offset="0" style="stop-color:#444B8C"/>
				<stop  offset="0.9964" style="stop-color:#26264F"/>
			</linearGradient>
			<path class="st60" d="M1372.2,1879.6c15.3-14.2,44.7-30.5,59.4-68.5c4.4-11.4,20.1-51.9-3-82.9c-13.7-18.4-39.2-30.9-61.7-26.5
				c-19.2,3.8-22.2,17.2-54.9,44.1c-12.7,10.5-33.1,27.3-55.9,36.7c-39,16.1-62.4,0.9-101.5,2.7c-48,2.1-103.9,28.9-130.8,67.9
				c-47.7,69.2,21.4,139.4-30.9,220.5c-17.1,26.6-25.6,20.6-66.1,72c-40.6,51.5-60.9,77.2-57.3,108.8c5,43.8,52.2,85.6,96.6,88.4
				c43.4,2.8,71-31.4,93-16.4c15.7,10.6,6.7,31.3,23.4,56.1c21.5,32,63.8,38.4,70.6,39.4c63.4,9.6,148.9-64.8,185.2-152.9
				C1403.9,2110.3,1288.8,1956.6,1372.2,1879.6z"/>
			
				<linearGradient id="SVGID_54_" gradientUnits="userSpaceOnUse" x1="2499.3066" y1="1869.6473" x2="2601.2197" y2="1246.4081" gradientTransform="matrix(-1 0 0 -1 3829.4229 3710)">
				<stop  offset="0" style="stop-color:#FFC444"/>
				<stop  offset="0.9964" style="stop-color:#F36F56"/>
			</linearGradient>
			<path class="st61" d="M1632.4,1923.7c0.4-44.3-100.3-79.8-146.4-91.2c-71.7-17.8-129.1-6.6-143-3.7
				c-89.4,18.9-145.1,72.6-166,95.1c17.2,11.2,64.5,45.3,88,109.9c7.3,20.1,28.9,88.9-2,153.4c-17.8,37.1-49.2,65-73.1,86.2
				c-35.8,31.8-54.3,36.6-66.3,65.1c-13.1,31,0.1,46.1-16.1,67.3c-17.4,22.8-37.9,12.2-67.4,35.2c-30.3,23.6-19.5,43-47,69.1
				c-40,37.9-93.1,25.6-95.5,42.6c-2.1,14.7,35.6,34.6,67.6,42.6c63.4,16,118.8-10.8,135.2-19.1c45.6-22.9,37.7-37.7,72.4-55.2
				c58.2-29.2,97.9,3.3,230.4,6.6c71.7,1.8,108,2.2,127.9-22c18.1-22.2,8.6-46.5-2.3-151.3c-5.2-49.9-7.1-100.1-10.9-150.1
				c-10.8-141.4-11.1-153.9-1.5-173.4C1550.6,1961,1632,1963.5,1632.4,1923.7z"/>
			<g class="st35">
				
					<linearGradient id="SVGID_55_" gradientUnits="userSpaceOnUse" x1="2604.2759" y1="1886.8124" x2="2706.189" y2="1263.5726" gradientTransform="matrix(-1 0 0 -1 3829.4229 3710)">
					<stop  offset="0" style="stop-color:#FFC444"/>
					<stop  offset="0.9964" style="stop-color:#F36F56"/>
				</linearGradient>
				<path class="st62" d="M993,2510.2c27.5-26.1,16.8-45.5,47-69.1c29.5-23,50-12.4,67.4-35.2c16.2-21.2,3.1-36.3,16.1-67.3
					c12-28.4,30.5-33.3,66.3-65.1c23.9-21.2,55.3-49.1,73.1-86.2c30.8-64.4,9.3-133.2,2-153.4c-23.5-64.7-70.8-98.8-88-109.9
					c1.7-1.8,3.6-3.8,5.7-5.9c113.1,15.5,179,80.9,187.1,100.2c18.8,44.7-11,61.1-11.8,190.1c-0.4,61.6,6.3,86-13.7,111.7
					c-22.9,29.4-49.2,20.3-82.3,58.8c-25.4,29.6-21.3,48.3-45.1,60.8c-25.5,13.4-41.8-2.2-70.6,3.9c-48.1,10.3-58.4,65.7-90.2,96
					c-24,22.9-68.5,39-156.1,21.8c-2-3-3-5.8-2.6-8.5C899.9,2535.8,952.9,2548.1,993,2510.2z"/>
			</g>
			
				<linearGradient id="SVGID_56_" gradientUnits="userSpaceOnUse" x1="2583.1924" y1="1883.3641" x2="2685.105" y2="1260.1261" gradientTransform="matrix(-1 0 0 -1 3829.4229 3710)">
				<stop  offset="0" style="stop-color:#FFC444"/>
				<stop  offset="0.9964" style="stop-color:#F36F56"/>
			</linearGradient>
			<path class="st63" d="M1335.4,2053.1c12,25.5-43.2,85-104.6,113.2c-12.5,5.8-102.3,47-142.3,7.3c-33.1-32.8-11.7-100.7-4.1-124.9
				c37.4-118.9,152.3-179.5,200.5-201.3c35.9,89.9,14.8,129.9,6.4,142.4c-8.7,13.1-33,40.5-58.8,64.7c-18.1,17-29.4,25.3-27.9,27.9
				c1.9,3.3,23.2-2.9,105.8-43.2C1320,2040.9,1331.3,2044.3,1335.4,2053.1z"/>
			<path class="st36" d="M1681.2,1906.4l-40.5,201.9c-1.3,6.5-6.3,11.6-12.8,12.9l-302.3,64.9c-10.8,2.3-20.9-6.4-20-17.5l16-205.3
				c0.6-7.1,5.6-13.1,12.5-14.8c47.9-11.8,232.5-56.2,329.9-61.9C1674.8,1886,1683.3,1895.7,1681.2,1906.4z"/>
			
				<linearGradient id="SVGID_57_" gradientUnits="userSpaceOnUse" x1="1255.0032" y1="1511.9017" x2="1234.4257" y2="1457.0284" gradientTransform="matrix(-0.8633 0.5047 -0.5047 -0.8633 3177.8093 2459.4121)">
				<stop  offset="0" style="stop-color:#311944"/>
				<stop  offset="1" style="stop-color:#A03976"/>
			</linearGradient>
			<path class="st64" d="M1379.7,1759c0,0-5.7,45.6-22.5,56c-16.8,10.4-44,24.1-47,27.8c-3,3.7,104.2,15.2,157.4-11.6l0,0
				c-17.5-3.7-22.3-5-22.3-5c-4.8-1.3-13.6-3.8-22.5-8.9c-6-3.4-15.8-10.2-24.7-22.9l0.2-25.2L1379.7,1759z"/>
			
				<linearGradient id="SVGID_58_" gradientUnits="userSpaceOnUse" x1="1247.9973" y1="1581.3619" x2="1178.4238" y2="1495.13" gradientTransform="matrix(-0.8633 0.5047 -0.5047 -0.8633 3177.8093 2459.4121)">
				<stop  offset="0" style="stop-color:#311944"/>
				<stop  offset="1" style="stop-color:#A03976"/>
			</linearGradient>
			<path class="st65" d="M1377.1,1775.1c0,0,11,15.1,28.2,8.8c15.4-5.6,6.2-45.4-6-49.9c-4.1-1.5-11.6-0.8-16.6,2.3
				c-3.5,2.2-12.9,13.9-7.5,26.9c-3.9-1.1-7.3-0.1-8.2,1.8c-1.1,2.4,2.2,5.8,3,6.5C1372.5,1774.1,1375.7,1774.9,1377.1,1775.1z"/>
			<path class="st0" d="M1408.9,2081c32.5-9.2,59.4,13.6,85.3-4.4c26.5-18.4,9.2-49.9,36.7-80.8c29.5-33.1,66.8-16.9,94.1-47
				c10.1-11.2,19.2-29.4,19.4-60.5c6.8-0.7,13.4-1.2,19.6-1.6c10.9-0.6,19.4,9.1,17.2,19.8l-40.5,201.9c-1.3,6.5-6.3,11.6-12.8,12.9
				l-290.5,62.3C1357.9,2111.6,1385.2,2087.7,1408.9,2081z"/>
			
				<linearGradient id="SVGID_59_" gradientUnits="userSpaceOnUse" x1="2143.4072" y1="1631.8129" x2="2181.6248" y2="1826.8199" gradientTransform="matrix(-1 0 0 -1 3829.4229 3710)">
				<stop  offset="0" style="stop-color:#311944"/>
				<stop  offset="1" style="stop-color:#A03976"/>
			</linearGradient>
			<path class="st66" d="M1661.9,2013.8c0,0,19.3-17.8,21.4-38.5c2.1-20.7-12.5-37.3-26.6-41.5c-14.1-4.2-21.6,2-12.2,22.4
				C1654.1,1976.6,1669.1,1989.8,1661.9,2013.8z"/>
		</g>
	</g>
</g>
</svg>
