<svg xmlns="http://www.w3.org/2000/svg" viewBox="0 0 838.81 343.15"><defs><style>.cls-1{fill:#47509e;}.cls-2{fill:#f6f6f6;}</style></defs><g id="Layer_2" data-name="Layer 2"><g id="Metro"><rect class="cls-1" width="838.81" height="343.15" rx="57.79"/><g id="Metro2"><polygon class="cls-2" points="128.81 115.7 128.81 244.14 172.37 244.14 172.37 169.47 128.81 115.7"/><polygon class="cls-2" points="251.92 244.14 295.02 244.14 295.02 182.36 355.91 182.36 355.91 151.7 295.47 151.7 295.47 96.59 251.92 96.59 212.81 149.48 170.15 96.59 128.81 96.59 211.47 207.69 251.92 158.14 251.92 244.14"/><rect class="cls-2" x="380.35" y="137.03" width="42.66" height="107.1"/><path class="cls-2" d="M306.47,96.59H521a31.64,31.64,0,0,1,25.33,12.49,55.47,55.47,0,0,1,11.52,33.23c.2,26.76-18.9,42.59-21.29,44.5l32.71,57.33H528.36L497.47,187.7h-8v56.44H447.25V137.25H489v22.67h25.11a18.3,18.3,0,0,0-.56-34.11H306.47Z"/><rect class="cls-2" x="306.14" y="212.36" width="52.66" height="31.78"/><path class="cls-2" d="M660.66,196c9.64-10.59,12.77-25.3,8.06-38-6-16.18-23.26-25.58-40-23.22a37.8,37.8,0,0,0-32.24,37.08,36.43,36.43,0,0,0,1.4,10c4.48,15.69,19.33,26.14,35.64,26.14H710v35.8H637.39c-24.23,0-47.49-10.82-62.15-30.11A72.59,72.59,0,0,1,560.06,168c.69-28.1,18.62-54.38,45.46-65.45,29.39-12.12,64.17-3.84,84.48,20.63,16.85,20.3,21.23,48.69,11.61,74.16H659.37Z"/></g></g></g></svg>