<svg xmlns="http://www.w3.org/2000/svg" viewBox="0 0 2279.41 336.38"><defs><style>.cls-1{fill:#bababa;fill-rule:evenodd;}</style></defs><g id="Layer_2" data-name="Layer 2"><g id="Layer_1-2" data-name="Layer 1"><path class="cls-1" d="M545.75,96.37h84.32l3.71,27.79c6.49-22.23,49.12-38,75.06-38,60.23,0,84.31,37.07,84.31,101.93V328H699.58V202.91c0-25-4.63-43.54-29.65-43.54-23.17,0-35.22,25-35.22,42.63V328H545.77V96.37ZM0,328.94V.93H156.58c93.59,0,136.21,45.4,136.21,111.19,0,70.44-38.91,118.62-136.21,118.62H103.77V329H0ZM145.48,151c25,0,51.88-5.56,51.88-34.28,0-29.65-28.71-36.13-51.88-36.13h-41.7V151ZM1576.12,96.37h85.24l2.79,27.79c7.42-22.23,50-38,76-38,59.3,0,84.3,37.07,84.3,101.93V328.94h-93.57v-126c0-25-5.58-43.54-30.57-43.54-22.25,0-34.31,25-34.31,42.63V328.94h-89.88V96.37ZM1146.2,245.56c0,9.27,4.63,23.15,10.18,27.79,6.49,4.63,14.83,9.27,25,9.27,16.66,0,29.63-4.63,29.63-20.38.94-38.91-140.84-4.63-140.84-97.29,0-64.85,50-79.69,101.93-79.69s123.24,10.2,120.45,80.61h-78.75c0-6.48-2.79-11.11-6.48-16.68-5.58-6.48-12.07-9.26-24.09-10.19-15.76-.92-30.57,1.85-30.57,13.9.91,36.15,146.39,12,146.39,97.3,0,59.3-41.7,86.18-122.3,86.18-51-.93-114.9-26.87-114.9-90.81h84.31Zm959-59.31c0-5.58,0-13-7.39-22.25-3.72-4.63-12.06-14.82-25-14.82-35.22,0-44.49,34.28-44.49,62.1,0,32.42,14.85,59.3,42.63,59.3,24.09,0,36.15-22.25,36.15-40.79h81.54c1.85,48.18-31.52,105.63-121.38,105.63-73.22,0-125.1-51-125.1-125.09,0-89.88,66.71-124.17,124.15-124.17,77.84,0,122.33,47.26,121.38,100.07H2105.2v0ZM446.61,328.94l-9.26-19.46c-17.6,14.83-36.13,23.16-65.78,23.16-28.73-.91-85.25-4.63-85.25-66.71,0-101.93,152-55.6,152-105.64,0-16.68-18.54-15.75-28.73-15.75-18.53,0-30.57,3.7-33.36,31.49H298.37c0-48.17,14.84-88.94,116.75-88.94,99.16,0,109.34,51.88,109.34,102.85V295.58c0,13.9.93,20.39,10.19,30.57V328Zm-7.4-106.56c-31.51,14.85-71.35,13.9-72.27,37.08,0,14.82,8.34,22.22,26.87,22.22C424.38,281.68,441.06,250.19,439.21,222.38Zm530,106.56L960,309.48c-17.6,14.83-37.07,23.16-65.8,23.16C864.51,331.73,808,328,808,265.93c0-101.93,152-55.6,152.89-105.64,0-16.68-19.46-15.75-28.72-15.75-19.45,0-30.58,3.7-33.36,31.49H821c0-48.17,13.89-88.94,116.74-88.94,98.22,0,108.42,51.88,108.42,102.85V295.58c0,13.9.92,20.39,10.19,30.57V328l-87.1.93ZM961.8,222.38c-31.5,14.85-72.28,13.9-72.28,37.08,0,14.82,7.4,22.22,26.87,22.22C946.05,281.68,963.65,250.19,961.8,222.38Zm965.49,106.56V96.37h-86.15V328.94ZM1841.15,66.72h86.16V0h-86.16ZM1437.13,88c76.91,0,124.17,53.74,124.17,124.16,0,71.35-47.27,124.17-124.17,124.17S1312,283.54,1312,212.19c0-70.42,48.2-124.16,125.1-124.16Zm-40.75,124.16c0,28.72,9.27,63.94,40.76,64.87,31.52,0,39.84-36.15,39.84-64.87,0-27.8-8.34-63.93-39.84-63.93S1397.31,184.4,1396.38,212.19Zm846.91,71.35c5.55,0,13.88.91,13.88-6.48,0-6.48-5.55-7.42-10.18-7.42h-11.12v13.9Zm18.51,22.25h-5.55l-11.12-18.55h-9.27v18.55h-4.63V265.94h16.69c7.44,0,14.06,2.24,14.06,11.12,0,7.39-4.81,10.18-12.21,10.18l12,18.55Zm13.46-19c0-17.6-13.9-31.52-30.57-31.52a31.27,31.27,0,0,0-31.52,31v.52c0,16.66,13.91,30.57,31.52,30.57A30.85,30.85,0,0,0,2275.26,286.79Zm-66.28-.48a35.22,35.22,0,1,1,35.22,35.21A35.22,35.22,0,0,1,2209,286.31Z"/></g></g></svg>